<svg xmlns="http://www.w3.org/2000/svg" viewBox="0 0 512 512">
  <defs>
    <linearGradient id="tile" x1="0" y1="0" x2="0" y2="1">
      <stop offset="0" stop-color="#FFB566"/>
      <stop offset="0.5" stop-color="#F0842E"/>
      <stop offset="1" stop-color="#C0611C"/>
    </linearGradient>
    <radialGradient id="sheen" cx="0.28" cy="0.22" r="0.75">
      <stop offset="0" stop-color="#FFFFFF" stop-opacity="0.55"/>
      <stop offset="0.45" stop-color="#FFFFFF" stop-opacity="0.12"/>
      <stop offset="1" stop-color="#FFFFFF" stop-opacity="0"/>
    </radialGradient>
    <filter id="bshadow" x="-20%" y="-20%" width="140%" height="140%">
      <feDropShadow dx="0" dy="6" stdDeviation="7" flood-color="#5A2503" flood-opacity="0.28"/>
    </filter>
  </defs>
  <rect width="512" height="512" fill="url(#tile)"/>
  <rect width="512" height="512" fill="url(#sheen)"/>
  <g transform="translate(256 256) scale(0.8) translate(-256 -256)">
    <g fill="#FFFFFF" filter="url(#bshadow)">
      <rect x="96" y="243" width="320" height="26" rx="13"/>
      <rect x="150" y="181" width="36" height="150" rx="14"/>
      <rect x="326" y="181" width="36" height="150" rx="14"/>
      <rect x="112" y="201" width="30" height="110" rx="12"/>
      <rect x="370" y="201" width="30" height="110" rx="12"/>
      <rect x="90" y="223" width="18" height="66" rx="8"/>
      <rect x="404" y="223" width="18" height="66" rx="8"/>
    </g>
    <g fill="#FFFFFF" opacity="0.35">
      <rect x="96" y="243" width="320" height="6" rx="3"/>
      <rect x="150" y="181" width="36" height="6" rx="3"/>
      <rect x="326" y="181" width="36" height="6" rx="3"/>
    </g>
  </g>
</svg>
